<?xml version="1.0" encoding="UTF-8"?>
<svg xmlns="http://www.w3.org/2000/svg" id="Layer_1" data-name="Layer 1" viewBox="0 0 512 512" width="512" height="512"><path d="M189.823,324.678a5,5,0,0,1-2.517.68,5.91,5.91,0,0,1-2.838-.722L75,258.592V415H488V314.309L338.2,238.1Z"/><path d="M65,420V64H42v8H28.5a5,5,0,0,0,0,10H42v35H28.5a5,5,0,0,0,0,10H42v35H28.5a5,5,0,0,0,0,10H42v35H28.5a5,5,0,0,0,0,10H42v35H28.5a5,5,0,0,0,0,10H42v35H28.5a5,5,0,0,0,0,10H42v35H28.5a5,5,0,0,0,0,10H42v35H28.5a5,5,0,0,0,0,10H42v35H28.5a5,5,0,0,0,0,10H42v7H488V425H70.5C67.739,425,65,422.761,65,420Z"/><path d="M285.265,164.926,161.649,84.565,75,131.126V247.191l.376-.209,111.852,67.561,148.477-86.459a4.583,4.583,0,0,1,4.562-.138L488,303.093V92.6L289.589,165.431A4.732,4.732,0,0,1,285.265,164.926ZM105,242.472a5,5,0,0,1-10,0V166.083a5,5,0,1,1,10,0Zm0-96.232a5,5,0,0,1-10,0v-7.08a5,5,0,0,1,10,0Z"/></svg>
